<svg width="33" height="45" viewBox="0 0 33 45" fill="none" xmlns="http://www.w3.org/2000/svg">
<path d="M16.5 41.1648C17.0107 41.1648 17.433 41.0199 17.767 40.7301C18.1009 40.4403 18.2679 40.0739 18.2679 39.6307C18.2679 39.1875 18.1009 38.821 17.767 38.5312C17.433 38.2415 17.0107 38.0966 16.5 38.0966C15.9893 38.0966 15.567 38.2415 15.233 38.5312C14.8991 38.821 14.7321 39.1875 14.7321 39.6307C14.7321 40.0739 14.8991 40.4403 15.233 40.7301C15.567 41.0199 15.9893 41.1648 16.5 41.1648ZM3.53571 34.2614H29.4643V7.67045H3.53571V34.2614ZM3.53571 45C2.59286 45 1.76786 44.6932 1.06071 44.0795C0.353571 43.4659 0 42.75 0 41.9318V3.06818C0 2.25 0.353571 1.53409 1.06071 0.920455C1.76786 0.306818 2.59286 0 3.53571 0H29.4643C30.4071 0 31.2321 0.306818 31.9393 0.920455C32.6464 1.53409 33 2.25 33 3.06818V41.9318C33 42.75 32.6464 43.4659 31.9393 44.0795C31.2321 44.6932 30.4071 45 29.4643 45H3.53571ZM3.53571 4.60227H29.4643V3.06818H3.53571V4.60227ZM3.53571 3.06818V4.60227V3.06818ZM3.53571 37.3295V41.9318H29.4643V37.3295H3.53571ZM3.53571 41.9318V37.3295V41.9318Z" fill="#CCE5FD"/>
</svg>
