<svg width="35" height="25" viewBox="0 0 35 25" fill="none" xmlns="http://www.w3.org/2000/svg">
<path d="M2.625 25C1.925 25 1.3125 24.7656 0.7875 24.2969C0.2625 23.8281 0 23.2813 0 22.6562V2.34375C0 1.71875 0.2625 1.17187 0.7875 0.703125C1.3125 0.234375 1.925 0 2.625 0H32.375C33.075 0 33.6875 0.234375 34.2125 0.703125C34.7375 1.17187 35 1.71875 35 2.34375V22.6562C35 23.2813 34.7375 23.8281 34.2125 24.2969C33.6875 24.7656 33.075 25 32.375 25H2.625ZM17.5 13.2031L2.625 4.49219V22.6562H32.375V4.49219L17.5 13.2031ZM17.5 10.8594L32.2 2.34375H2.84375L17.5 10.8594ZM2.625 4.49219V2.34375V22.6562V4.49219Z" fill="#CCE5FD"/>
</svg>
