<svg width="37" height="37" viewBox="0 0 37 37" fill="none" xmlns="http://www.w3.org/2000/svg">
<path d="M6.72731 1.51367H30.2728C33.1522 1.51367 35.4864 3.8479 35.4864 6.72731V30.2728C35.4864 33.1522 33.1522 35.4864 30.2728 35.4864H6.72731C3.8479 35.4864 1.51367 33.1522 1.51367 30.2728V6.72731C1.51367 3.8479 3.8479 1.51367 6.72731 1.51367Z" stroke="#CCE5FD" stroke-width="2"/>
<path d="M18.4999 25.3954C22.3082 25.3954 25.3954 22.3082 25.3954 18.4999C25.3954 14.6917 22.3082 11.6045 18.4999 11.6045C14.6917 11.6045 11.6045 14.6917 11.6045 18.4999C11.6045 22.3082 14.6917 25.3954 18.4999 25.3954Z" stroke="#CCE5FD" stroke-width="2"/>
<path d="M29.0954 11.0998C30.3029 11.0998 31.2818 10.1209 31.2818 8.91341C31.2818 7.70592 30.3029 6.72705 29.0954 6.72705C27.8879 6.72705 26.9091 7.70592 26.9091 8.91341C26.9091 10.1209 27.8879 11.0998 29.0954 11.0998Z" fill="#CCE5FD"/>
</svg>
