<svg width="37" height="37" viewBox="0 0 37 37" fill="none" xmlns="http://www.w3.org/2000/svg">
<path d="M6.72731 4.4707H30.2728C33.1522 4.4707 35.4864 6.61041 35.4864 9.24987V30.8332C35.4864 33.4725 33.1522 35.6124 30.2728 35.6124H6.72731C3.8479 35.6124 1.51367 33.4725 1.51367 30.8332V9.24987C1.51367 6.61041 3.8479 4.4707 6.72731 4.4707Z" stroke="#CCE5FD" stroke-width="2"/>
<path d="M7.84404 13.7392C6.93586 13.7392 6.18913 13.4987 5.60386 13.0177C5.03877 12.5182 4.75623 11.9077 4.75623 11.1862C4.75623 10.4462 5.03877 9.83572 5.60386 9.35472C6.18913 8.85522 6.93586 8.60547 7.84404 8.60547C8.73204 8.60547 9.45859 8.85522 10.0237 9.35472C10.609 9.83572 10.9016 10.4462 10.9016 11.1862C10.9016 11.9077 10.609 12.5182 10.0237 13.0177C9.45859 13.4987 8.73204 13.7392 7.84404 13.7392ZM10.4172 15.3487V30.8332H5.24059V15.3487H10.4172ZM24.4614 15.1822C26.4392 15.1822 28.0134 15.7742 29.184 16.9582C30.3747 18.1237 30.9701 19.7332 30.9701 21.7867V30.8332H25.8237V22.425C25.8237 21.389 25.5311 20.5842 24.9458 20.0107C24.3605 19.4372 23.5734 19.1505 22.5845 19.1505C21.5956 19.1505 20.8085 19.4372 20.2232 20.0107C19.638 20.5842 19.3453 21.389 19.3453 22.425V30.8332H14.1687V15.3487H19.3453V17.4022C19.8701 16.7177 20.5764 16.1812 21.4644 15.7927C22.3524 15.3857 23.3514 15.1822 24.4614 15.1822Z" fill="#CCE5FD"/>
</svg>
