<svg width="20" height="20" viewBox="0 0 20 20" fill="none" xmlns="http://www.w3.org/2000/svg">
<path d="M9.12498 10.8125L13.125 6.81249L12.2291 5.91666L9.12498 9.02082L7.77081 7.66666L6.87498 8.56249L9.12498 10.8125ZM9.99998 16.6875C11.8472 15.0069 13.2118 13.4826 14.0937 12.1146C14.9757 10.7465 15.4166 9.54166 15.4166 8.49999C15.4166 6.8611 14.8923 5.52082 13.8437 4.47916C12.7951 3.43749 11.5139 2.91666 9.99998 2.91666C8.48609 2.91666 7.20484 3.43749 6.15623 4.47916C5.10762 5.52082 4.58331 6.8611 4.58331 8.49999C4.58331 9.54166 5.0347 10.7465 5.93748 12.1146C6.84026 13.4826 8.19442 15.0069 9.99998 16.6875ZM9.99998 18.3333C7.76387 16.4305 6.09373 14.6632 4.98956 13.0312C3.8854 11.3993 3.33331 9.88888 3.33331 8.49999C3.33331 6.41666 4.00345 4.75693 5.34373 3.52082C6.68401 2.28471 8.23609 1.66666 9.99998 1.66666C11.7639 1.66666 13.316 2.28471 14.6562 3.52082C15.9965 4.75693 16.6666 6.41666 16.6666 8.49999C16.6666 9.88888 16.1146 11.3993 15.0104 13.0312C13.9062 14.6632 12.2361 16.4305 9.99998 18.3333Z" fill="#5F5F5F"/>
</svg>
